<svg version="1.2" xmlns="http://www.w3.org/2000/svg" viewBox="0 0 40 46" width="40" height="46">
	<title>ic_convert_up-svg</title>
	<style>
		.s0 { fill: #1e293c } 
		.s1 { fill: #ffffff } 
	</style>
	<g id="Layer">
		<path id="Layer" class="s0" d="m20 43c-11.1 0-20-8.9-20-20 0-11.1 8.9-20 20-20 11.1 0 20 8.9 20 20 0 11.1-8.9 20-20 20z"/>
		<path id="Layer" class="s1" d="m28.4 24.3c0.4 0.3 0.6 0.8 0.6 1.3 0 0.5-0.2 0.9-0.5 1.3-0.4 0.4-0.8 0.6-1.3 0.6-0.5 0-1-0.2-1.4-0.5l-5.8-5.5-5.8 5.5c-0.4 0.3-0.9 0.5-1.4 0.5-0.5 0-0.9-0.2-1.3-0.6-0.3-0.4-0.5-0.8-0.5-1.3 0-0.5 0.2-1 0.6-1.3l7.1-6.8q0.3-0.2 0.6-0.4 0.3-0.1 0.7-0.1 0.4 0 0.7 0.1 0.3 0.2 0.6 0.4z"/>
	</g>
</svg>